<svg width="28" height="28" viewBox="0 0 28 28" fill="none" xmlns="http://www.w3.org/2000/svg">
<path fill-rule="evenodd" clip-rule="evenodd" d="M5.72641 11.9143C5.72641 8.56345 8.44278 5.84707 11.7936 5.84707C15.1444 5.84707 17.8608 8.56345 17.8608 11.9143C17.8608 15.2651 15.1444 17.9814 11.7936 17.9814C8.44278 17.9814 5.72641 15.2651 5.72641 11.9143ZM11.7936 4.23169C7.55063 4.23169 4.11102 7.67129 4.11102 11.9143C4.11102 16.1572 7.55063 19.5968 11.7936 19.5968C13.624 19.5968 15.3049 18.9567 16.6247 17.8881L22.0255 23.2889C22.3409 23.6044 22.8523 23.6044 23.1678 23.2889C23.4832 22.9735 23.4832 22.4621 23.1678 22.1467L17.767 16.7459C18.8358 15.4261 19.4762 13.7449 19.4762 11.9143C19.4762 7.67129 16.0366 4.23169 11.7936 4.23169Z" fill="#121212"/>
</svg>
